<svg xmlns="http://www.w3.org/2000/svg" xmlns:xlink="http://www.w3.org/1999/xlink" width="360" zoomAndPan="magnify" viewBox="0 0 270 269.999989" height="360" preserveAspectRatio="xMidYMid meet" version="1.0"><defs><g/></defs><g fill="#000000" fill-opacity="1"><g transform="translate(74.792958, 160.775623)"><g><path d="M 64.222656 -1.226562 L 33.132812 -81.199219 C 32.828125 -82.015625 31.394531 -82.015625 31.089844 -81.199219 L 0.101562 -1.226562 C -0.203125 -0.613281 0.203125 0 1.125 0 L 15.136719 0 C 15.542969 0 16.054688 -0.203125 16.15625 -0.613281 L 32.109375 -46.222656 L 48.269531 -0.613281 C 48.371094 -0.203125 48.882812 0 49.191406 0 L 63.300781 0 C 64.019531 0 64.53125 -0.613281 64.222656 -1.226562 Z M 64.222656 -1.226562 "/></g></g></g><g fill="#000000" fill-opacity="1"><g transform="translate(135.553325, 196.76348)"><g><path d="M 42.644531 -66.574219 L 31.90625 -36.609375 L 15.953125 -81.199219 C 15.851562 -81.609375 15.441406 -81.8125 14.929688 -81.8125 L 1.023438 -81.8125 C 0.203125 -81.8125 -0.203125 -81.199219 0.101562 -80.585938 L 30.882812 -0.511719 C 31.292969 0.203125 32.519531 0.203125 32.828125 -0.511719 L 58.394531 -66.574219 Z M 42.644531 -66.574219 "/></g></g></g><g fill="#000000" fill-opacity="1"><g transform="translate(159.175191, 125.812121)"><g><path d="M 1.609375 0 L -0.03125 0 L 2.296875 -6.3125 L 3.921875 -6.3125 L 6.203125 0 L 4.5625 0 L 4.234375 -1.0625 L 1.9375 -1.0625 Z M 3.078125 -4.765625 C 3.023438 -4.578125 2.96875 -4.375 2.90625 -4.15625 C 2.84375 -3.945312 2.738281 -3.601562 2.59375 -3.125 L 2.328125 -2.296875 L 3.84375 -2.296875 L 3.578125 -3.125 C 3.492188 -3.382812 3.40625 -3.65625 3.3125 -3.9375 C 3.226562 -4.21875 3.148438 -4.492188 3.078125 -4.765625 Z M 3.078125 -4.765625 "/></g></g></g><g fill="#000000" fill-opacity="1"><g transform="translate(165.875522, 125.812121)"><g><path d="M 3.796875 -3.25 L 6.15625 0 L 4.1875 0 L 2.46875 -2.578125 L 2.046875 -2.578125 L 2.046875 0 L 0.484375 0 L 0.484375 -6.3125 L 2.046875 -6.3125 L 2.046875 -3.828125 L 2.46875 -3.828125 L 4.203125 -6.3125 L 6.078125 -6.3125 Z M 3.796875 -3.25 "/></g></g></g><g fill="#000000" fill-opacity="1"><g transform="translate(172.424943, 125.812121)"><g><path d="M 6.203125 -3.15625 C 6.203125 -2.007812 5.96875 -1.179688 5.5 -0.671875 C 5.039062 -0.160156 4.285156 0.09375 3.234375 0.09375 C 2.140625 0.09375 1.367188 -0.144531 0.921875 -0.625 C 0.484375 -1.101562 0.265625 -1.945312 0.265625 -3.15625 C 0.265625 -4.300781 0.5 -5.128906 0.96875 -5.640625 C 1.4375 -6.148438 2.191406 -6.40625 3.234375 -6.40625 C 4.328125 -6.40625 5.09375 -6.160156 5.53125 -5.671875 C 5.976562 -5.191406 6.203125 -4.351562 6.203125 -3.15625 Z M 2.046875 -1.8125 C 2.128906 -1.644531 2.253906 -1.523438 2.421875 -1.453125 C 2.597656 -1.390625 2.867188 -1.359375 3.234375 -1.359375 C 3.609375 -1.359375 3.878906 -1.390625 4.046875 -1.453125 C 4.222656 -1.523438 4.351562 -1.644531 4.4375 -1.8125 C 4.5 -1.945312 4.546875 -2.117188 4.578125 -2.328125 C 4.609375 -2.546875 4.625 -2.820312 4.625 -3.15625 C 4.625 -3.5 4.609375 -3.78125 4.578125 -4 C 4.546875 -4.21875 4.5 -4.394531 4.4375 -4.53125 C 4.351562 -4.707031 4.222656 -4.828125 4.046875 -4.890625 C 3.878906 -4.960938 3.609375 -5 3.234375 -5 C 2.859375 -5 2.582031 -4.960938 2.40625 -4.890625 C 2.238281 -4.828125 2.117188 -4.707031 2.046875 -4.53125 C 1.972656 -4.394531 1.921875 -4.21875 1.890625 -4 C 1.859375 -3.78125 1.84375 -3.5 1.84375 -3.15625 C 1.84375 -2.820312 1.859375 -2.546875 1.890625 -2.328125 C 1.921875 -2.117188 1.972656 -1.945312 2.046875 -1.8125 Z M 2.046875 -1.8125 "/></g></g></g><g fill="#000000" fill-opacity="1"><g transform="translate(179.417023, 125.812121)"><g><path d="M 5.40625 -1.84375 C 5.40625 -1.207031 5.21875 -0.738281 4.84375 -0.4375 C 4.46875 -0.144531 3.882812 0 3.09375 0 L 0.484375 0 L 0.484375 -6.3125 L 3.09375 -6.3125 C 3.8125 -6.3125 4.320312 -6.179688 4.625 -5.921875 C 4.9375 -5.671875 5.09375 -5.253906 5.09375 -4.671875 C 5.09375 -4.296875 5.039062 -4.007812 4.9375 -3.8125 C 4.84375 -3.613281 4.644531 -3.457031 4.34375 -3.34375 C 4.695312 -3.269531 4.960938 -3.109375 5.140625 -2.859375 C 5.316406 -2.617188 5.40625 -2.28125 5.40625 -1.84375 Z M 3.65625 -4.4375 C 3.65625 -4.65625 3.613281 -4.804688 3.53125 -4.890625 C 3.445312 -4.984375 3.300781 -5.03125 3.09375 -5.03125 L 2.046875 -5.03125 L 2.046875 -3.75 L 3.09375 -3.75 C 3.300781 -3.75 3.445312 -3.800781 3.53125 -3.90625 C 3.613281 -4.007812 3.65625 -4.1875 3.65625 -4.4375 Z M 3.890625 -1.953125 C 3.890625 -2.191406 3.828125 -2.359375 3.703125 -2.453125 C 3.585938 -2.554688 3.382812 -2.609375 3.09375 -2.609375 L 2.046875 -2.609375 L 2.046875 -1.328125 L 3.09375 -1.328125 C 3.382812 -1.328125 3.585938 -1.375 3.703125 -1.46875 C 3.828125 -1.5625 3.890625 -1.722656 3.890625 -1.953125 Z M 3.890625 -1.953125 "/></g></g></g><g fill="#000000" fill-opacity="1"><g transform="translate(185.533848, 125.812121)"><g><path d="M 2.046875 -6.3125 L 2.046875 0 L 0.484375 0 L 0.484375 -6.3125 Z M 2.046875 -6.3125 "/></g></g></g><g fill="#000000" fill-opacity="1"><g transform="translate(188.5722, 125.812121)"><g><path d="M 2.046875 -2.03125 L 2.046875 0 L 0.484375 0 L 0.484375 -6.3125 L 2.78125 -6.3125 C 3.757812 -6.3125 4.453125 -6.144531 4.859375 -5.8125 C 5.265625 -5.488281 5.46875 -4.941406 5.46875 -4.171875 C 5.46875 -3.660156 5.359375 -3.238281 5.140625 -2.90625 C 4.921875 -2.582031 4.59375 -2.347656 4.15625 -2.203125 L 5.703125 0 L 3.828125 0 L 2.515625 -2.03125 Z M 3.890625 -4.171875 C 3.890625 -4.441406 3.804688 -4.628906 3.640625 -4.734375 C 3.484375 -4.847656 3.195312 -4.90625 2.78125 -4.90625 L 2.046875 -4.90625 L 2.046875 -3.296875 L 2.78125 -3.296875 C 3.195312 -3.296875 3.484375 -3.359375 3.640625 -3.484375 C 3.804688 -3.617188 3.890625 -3.847656 3.890625 -4.171875 Z M 3.890625 -4.171875 "/></g></g></g><g fill="#000000" fill-opacity="1"><g transform="translate(73.14251, 174.134667)"><g><path d="M 4.875 -1.453125 L 4.875 0 L 0.1875 0 L 0.1875 -1.453125 L 2.921875 -4.90625 L 0.46875 -4.90625 L 0.46875 -6.3125 L 4.6875 -6.3125 L 4.6875 -4.90625 L 1.953125 -1.453125 Z M 4.875 -1.453125 "/></g></g></g><g fill="#000000" fill-opacity="1"><g transform="translate(78.726139, 174.134667)"><g><path d="M 2.046875 -6.3125 L 2.046875 0 L 0.484375 0 L 0.484375 -6.3125 Z M 2.046875 -6.3125 "/></g></g></g><g fill="#000000" fill-opacity="1"><g transform="translate(81.764493, 174.134667)"><g><path d="M 4.390625 -6.3125 L 6 -6.3125 L 3.796875 -2.296875 L 3.796875 0 L 2.25 0 L 2.25 -2.296875 L -0.015625 -6.3125 L 1.765625 -6.3125 L 3.03125 -3.671875 Z M 4.390625 -6.3125 "/></g></g></g><g fill="#000000" fill-opacity="1"><g transform="translate(88.283735, 174.134667)"><g><path d="M 6.203125 -3.15625 C 6.203125 -2.007812 5.96875 -1.179688 5.5 -0.671875 C 5.039062 -0.160156 4.285156 0.09375 3.234375 0.09375 C 2.140625 0.09375 1.367188 -0.144531 0.921875 -0.625 C 0.484375 -1.101562 0.265625 -1.945312 0.265625 -3.15625 C 0.265625 -4.300781 0.5 -5.128906 0.96875 -5.640625 C 1.4375 -6.148438 2.191406 -6.40625 3.234375 -6.40625 C 4.328125 -6.40625 5.09375 -6.160156 5.53125 -5.671875 C 5.976562 -5.191406 6.203125 -4.351562 6.203125 -3.15625 Z M 2.046875 -1.8125 C 2.128906 -1.644531 2.253906 -1.523438 2.421875 -1.453125 C 2.597656 -1.390625 2.867188 -1.359375 3.234375 -1.359375 C 3.609375 -1.359375 3.878906 -1.390625 4.046875 -1.453125 C 4.222656 -1.523438 4.351562 -1.644531 4.4375 -1.8125 C 4.5 -1.945312 4.546875 -2.117188 4.578125 -2.328125 C 4.609375 -2.546875 4.625 -2.820312 4.625 -3.15625 C 4.625 -3.5 4.609375 -3.78125 4.578125 -4 C 4.546875 -4.21875 4.5 -4.394531 4.4375 -4.53125 C 4.351562 -4.707031 4.222656 -4.828125 4.046875 -4.890625 C 3.878906 -4.960938 3.609375 -5 3.234375 -5 C 2.859375 -5 2.582031 -4.960938 2.40625 -4.890625 C 2.238281 -4.828125 2.117188 -4.707031 2.046875 -4.53125 C 1.972656 -4.394531 1.921875 -4.21875 1.890625 -4 C 1.859375 -3.78125 1.84375 -3.5 1.84375 -3.15625 C 1.84375 -2.820312 1.859375 -2.546875 1.890625 -2.328125 C 1.921875 -2.117188 1.972656 -1.945312 2.046875 -1.8125 Z M 2.046875 -1.8125 "/></g></g></g><g fill="#000000" fill-opacity="1"><g transform="translate(95.275815, 174.134667)"><g><path d="M 2.6875 0 L 0.484375 0 L 0.484375 -6.3125 L 2.6875 -6.3125 C 3.332031 -6.3125 3.84375 -6.253906 4.21875 -6.140625 C 4.601562 -6.035156 4.90625 -5.867188 5.125 -5.640625 C 5.351562 -5.398438 5.519531 -5.078125 5.625 -4.671875 C 5.726562 -4.273438 5.78125 -3.769531 5.78125 -3.15625 C 5.78125 -2.0625 5.535156 -1.257812 5.046875 -0.75 C 4.554688 -0.25 3.769531 0 2.6875 0 Z M 3.921875 -4.5 C 3.828125 -4.632812 3.6875 -4.734375 3.5 -4.796875 C 3.320312 -4.867188 3.050781 -4.90625 2.6875 -4.90625 L 2.046875 -4.90625 L 2.046875 -1.453125 L 2.6875 -1.453125 C 3.050781 -1.453125 3.320312 -1.484375 3.5 -1.546875 C 3.675781 -1.609375 3.816406 -1.707031 3.921875 -1.84375 C 4.015625 -1.96875 4.078125 -2.132812 4.109375 -2.34375 C 4.148438 -2.5625 4.171875 -2.832031 4.171875 -3.15625 C 4.171875 -3.488281 4.148438 -3.757812 4.109375 -3.96875 C 4.078125 -4.1875 4.015625 -4.363281 3.921875 -4.5 Z M 3.921875 -4.5 "/></g></g></g><g fill="#000000" fill-opacity="1"><g transform="translate(101.84536, 174.134667)"><g><path d="M 4.28125 -2.65625 L 4.28125 -6.3125 L 5.84375 -6.3125 L 5.84375 -2.65625 C 5.84375 -1.738281 5.617188 -1.050781 5.171875 -0.59375 C 4.722656 -0.132812 4.050781 0.09375 3.15625 0.09375 C 2.207031 0.09375 1.515625 -0.117188 1.078125 -0.546875 C 0.648438 -0.984375 0.4375 -1.6875 0.4375 -2.65625 L 0.4375 -6.3125 L 2 -6.3125 L 2 -2.65625 C 2 -2.144531 2.078125 -1.800781 2.234375 -1.625 C 2.390625 -1.445312 2.695312 -1.359375 3.15625 -1.359375 C 3.601562 -1.359375 3.898438 -1.445312 4.046875 -1.625 C 4.203125 -1.800781 4.28125 -2.144531 4.28125 -2.65625 Z M 4.28125 -2.65625 "/></g></g></g><g fill="#000000" fill-opacity="1"><g transform="translate(108.636236, 174.134667)"><g><path d="M 4.515625 -1.453125 L 4.515625 0 L 0.484375 0 L 0.484375 -6.3125 L 2.046875 -6.3125 L 2.046875 -1.453125 Z M 4.515625 -1.453125 "/></g></g></g><g fill="#000000" fill-opacity="1"><g transform="translate(113.787268, 174.134667)"><g><path d="M 4.515625 -1.453125 L 4.515625 0 L 0.484375 0 L 0.484375 -6.3125 L 2.046875 -6.3125 L 2.046875 -1.453125 Z M 4.515625 -1.453125 "/></g></g></g><g fill="#000000" fill-opacity="1"><g transform="translate(118.9383, 174.134667)"><g><path d="M 1.609375 0 L -0.03125 0 L 2.296875 -6.3125 L 3.921875 -6.3125 L 6.203125 0 L 4.5625 0 L 4.234375 -1.0625 L 1.9375 -1.0625 Z M 3.078125 -4.765625 C 3.023438 -4.578125 2.96875 -4.375 2.90625 -4.15625 C 2.84375 -3.945312 2.738281 -3.601562 2.59375 -3.125 L 2.328125 -2.296875 L 3.84375 -2.296875 L 3.578125 -3.125 C 3.492188 -3.382812 3.40625 -3.65625 3.3125 -3.9375 C 3.226562 -4.21875 3.148438 -4.492188 3.078125 -4.765625 Z M 3.078125 -4.765625 "/></g></g></g><g fill="#000000" fill-opacity="1"><g transform="translate(125.638631, 174.134667)"><g><path d="M 4.390625 -6.3125 L 6 -6.3125 L 3.796875 -2.296875 L 3.796875 0 L 2.25 0 L 2.25 -2.296875 L -0.015625 -6.3125 L 1.765625 -6.3125 L 3.03125 -3.671875 Z M 4.390625 -6.3125 "/></g></g></g><g fill="#000000" fill-opacity="1"><g transform="translate(132.157872, 174.134667)"><g><path d="M 4.828125 -1.453125 L 4.828125 0 L 0.484375 0 L 0.484375 -6.3125 L 4.734375 -6.3125 L 4.734375 -4.90625 L 2.046875 -4.90625 L 2.046875 -3.859375 L 4.359375 -3.859375 L 4.359375 -2.546875 L 2.046875 -2.546875 L 2.046875 -1.453125 Z M 4.828125 -1.453125 "/></g></g></g><g fill="#000000" fill-opacity="1"><g transform="translate(137.751567, 174.134667)"><g><path d="M 2.15625 0 L -0.015625 -6.3125 L 1.71875 -6.3125 L 2.65625 -3.1875 C 2.71875 -2.976562 2.789062 -2.703125 2.875 -2.359375 C 2.96875 -2.015625 3.050781 -1.671875 3.125 -1.328125 C 3.269531 -1.941406 3.375 -2.367188 3.4375 -2.609375 C 3.507812 -2.859375 3.5625 -3.050781 3.59375 -3.1875 L 4.515625 -6.3125 L 6.203125 -6.3125 L 4.03125 0 Z M 2.15625 0 "/></g></g></g></svg>